<svg width="1289" height="1079" viewBox="0 0 1289 1079" fill="none" xmlns="http://www.w3.org/2000/svg">
<path fill-rule="evenodd" clip-rule="evenodd" d="M678.5 99C429.696 99 228 300.696 228 549.5V1069.3C228 1074.66 232.344 1079 237.703 1079H433.371V453.708H679.464V686.203C695.976 650.642 717.273 617.314 743.353 586.219C785.946 537.316 834.06 498.667 887.695 470.272C942.909 441.876 999.699 427.679 1058.07 427.679C1077.3 427.679 1095.73 428.896 1113.34 431.331C1061.43 239.847 886.414 99 678.5 99ZM1129 716.341C1110.08 708.464 1088.81 702.162 1065.17 697.434C1043.08 691.124 1021 687.969 998.91 687.969C956.317 687.969 915.302 696.645 875.864 713.998C838.004 729.773 804.087 752.647 774.115 782.619C745.719 811.015 722.845 844.931 705.493 884.369C688.14 922.229 679.464 964.034 679.464 1009.78V1079H1119.3C1124.66 1079 1129 1074.66 1129 1069.3V716.341Z" fill="url(#paint0_linear_42_5)"/>
<defs>
<linearGradient id="paint0_linear_42_5" x1="475" y1="148" x2="678.5" y2="1079" gradientUnits="userSpaceOnUse">
<stop stop-color="#2F80FA"/>
<stop offset="1" stop-color="#76A2E3"/>
</linearGradient>
</defs>
</svg>
